<svg xmlns="http://www.w3.org/2000/svg" width="39.873" height="33.227" viewBox="0 0 39.873 33.227">
  <g id="interface" transform="translate(0 -42.667)">
    <g id="Group_175" data-name="Group 175" transform="translate(0 42.667)">
      <g id="Group_174" data-name="Group 174">
        <circle id="Ellipse_34" data-name="Ellipse 34" cx="8.307" cy="8.307" r="8.307" transform="translate(11.63 9.968)" fill="#1885be"/>
        <path id="Path_7904" data-name="Path 7904" d="M36.55,47.651H31.281a2.478,2.478,0,0,1-1.763-.73l-3.037-3.037a4.127,4.127,0,0,0-2.937-1.217H16.329a4.127,4.127,0,0,0-2.937,1.217l-3.037,3.037a2.478,2.478,0,0,1-1.763.73H3.323A3.326,3.326,0,0,0,0,50.974v21.6a3.326,3.326,0,0,0,3.323,3.323H36.55a3.326,3.326,0,0,0,3.323-3.323v-21.6A3.326,3.326,0,0,0,36.55,47.651ZM19.936,70.91A9.968,9.968,0,1,1,29.9,60.942,9.979,9.979,0,0,1,19.936,70.91ZM33.227,55.958A1.661,1.661,0,1,1,34.889,54.3,1.664,1.664,0,0,1,33.227,55.958Z" transform="translate(0 -42.667)" fill="#1885be"/>
      </g>
    </g>
  </g>
</svg>
